{"title":"Rango 2011 TS XViD - IMAGiNE","uid":6239908,"size":1172649380,"categoryP":"video","categoryS":"movies","magnet":"?xt=urn:btih:536562683332d251fff527e37e7f07910548a7db&amp;dn=Rango+2011+TS+XViD+-+IMAGiNE&amp;tr=udp%3A%2F%2Ftracker.openbittorrent.com%3A80&amp;tr=udp%3A%2F%2Fopen.demonii.com%3A1337&amp;tr=udp%3A%2F%2Ftracker.coppersurfer.tk%3A6969&amp;tr=udp%3A%2F%2Fexodus.desync.com%3A6969","seeders":0,"leechers":1,"uploader":"SAFCukO09","files":80,"time":1300027731,"description":"[center]*********** ****    ****      ***      ******** *********** ****    *** **********\n\n          *+*     +*+*+* *+*+*+   *+* *+*   *+*    *+*    *+*     *+*+*   *+* *+*        \n\n          +*+     +*+ +*+*+ +*+  +*+   +*+  +*+           +*+     *+*+*+  +*+ +*+        \n\n          +$+     +$+  +*+  +$+ +$++*++$++* *$*           +$+     +$+ +*+ +$+ +$++*++$  \n\n          +$+     +$+       +$+ +$+     +$+ +$+   +$+$    +$+     +$+  +$+$+$ +$+        \n\n          $+$     $+$       $+$ $+$     $+$ $+$    $+$    $+$     $+$   $+$+$ $+$        \n\n      $$$$$$$$$$$ $$$       $$$ $$$     $$$  $$$$$$$$ $$$$$$$$$$$ $$$    $$$$ $$$$$$$$$$    \n\n                                               \n\n\n\n\n\n\n\n                          Another Fine Release Brought to you from - IMAGiNE                  \n\n                                               \n\n\n\n********************************************************************************************************************                                \n\n                             Rango 2011 TS XViD - IMAGiNE\n\n********************************************************************************************************************\n\n\n\nRipper ...........:IMAGiNE                                         IMDB Rating.......:7.9/10                            \n\nVideo Codec.......:XVID                                            Release Date......:13/03/11\n\nAudio Codec.......:MP3                                             Theatre Date......:04/03/11\n\nAudio Bitrate.....:128                                             Runtime...........:1h 32mn\n\nSubtitles.........:NIL                                             Language..........:ENGLISH\n\nResolution........:688 x 384                                       IMDb URL.......... http://www.imdb.com/title/tt1192628/\n\nDETAILS:\n\n\n\nVideo\n\nID                               : 0\n\nFormat                           : MPEG-4 Visual\n\nFormat profile                   : Advanced Simple@L5\n\nFormat settings, BVOP            : Yes\n\nFormat settings, QPel            : No\n\nFormat settings, GMC             : No warppoints\n\nFormat settings, Matrix          : Default (MPEG)\n\nMuxing mode                      : Packed bitstream\n\nCodec ID                         : XVID\n\nCodec ID/Hint                    : XviD\n\nDuration                         : 1h 36mn\n\nBit rate                         : 1 468 Kbps\n\nWidth                            : 688 pixels\n\nHeight                           : 384 pixels\n\nDisplay aspect ratio             : 16:9\n\nFrame rate                       : 25.000 fps\n\nColor space                      : YUV\n\nChroma subsampling               : 4:2:0\n\nBit depth                        : 8 bits\n\nScan type                        : Progressive\n\nBits/(Pixel*Frame)               : 0.222\n\nStream size                      : 1 014 MiB (91%)\n\nWriting library                  : XviD 61\n\n\n\nAudio\n\nID                               : 1\n\nFormat                           : MPEG Audio\n\nFormat version                   : Version 1\n\nFormat profile                   : Layer 3\n\nCodec ID                         : 55\n\nCodec ID/Hint                    : MP3\n\nDuration                         : 1h 36mn\n\nBit rate mode                    : Constant\n\nBit rate                         : 128 Kbps\n\nChannel(s)                       : 2 channels\n\nSampling rate                    : 44.1 KHz\n\nStream size                      : 88.4 MiB (8%)\n\nAlignment                        : Split accross interleaves\n\nInterleave, duration             : 40 ms (1.00 video frame)\n\nWriting library                  : LAME3.98.4\n\n\n\n\n\n\n\n\n\n\n\n\n\n\n\nSOURCES:\n\n\n\nVIDEO: Cinedub ... Thanks\n\nAUDIO: Thanks matey... Thanks\n\n\n\nNOTES:\n\n\n\nIMAGiNE bringing you another release.......... Rango 2011.... :wink:\n\n\n\nHere we are with our encode of this movie for you all.. Now for the video we just made a script\n\ncontaining white balance,rgb eq,resize,crop,sharpness,chroma,brightness,contrast,ect.With\n\nthe audio it was just a case of syncing the audio and muxing to our encode...:wink:\n\nFYI The video has flicker you being warn if not for that it will be very nice video now audio real nice...:wink:\n\n\n\nEnjoy :wink:\n\n\n\nSCREENS:\n\n[img]http://www.grinshare.com/img/SBS9L8.png[/img]\n[img]http://www.grinshare.com/img/PSOCAO.png[/img]\n[img]http://www.grinshare.com/img/AAJJW3.png[/img][/center]","torrent":{"xt":"urn:btih:536562683332d251fff527e37e7f07910548a7db","amp;dn":"Rango+2011+TS+XViD+-+IMAGiNE","amp;tr":["udp%3A%2F%2Ftracker.openbittorrent.com%3A80","udp%3A%2F%2Fopen.demonii.com%3A1337","udp%3A%2F%2Ftracker.coppersurfer.tk%3A6969","udp%3A%2F%2Fexodus.desync.com%3A6969"],"infoHash":"536562683332d251fff527e37e7f07910548a7db","infoHashBuffer":{"type":"Buffer","data":[83,101,98,104,51,50,210,81,255,245,39,227,126,127,7,145,5,72,167,219]},"announce":[],"urlList":[]}}